<svg xmlns="http://www.w3.org/2000/svg" width="64" height="64" viewBox="0 0 64 64" fill="none">
  <path d="M32 16C42.6667 16 48 13.3333 48 8C48 2.66667 42.6667 0 32 0C21.3333 0 16 2.66667 16 8C16 13.3333 21.3333 16 32 16Z" fill="black"/>
  <path d="M16 16C16 21.3333 21.3333 24 32 24C42.6667 24 48 21.3333 48 16V8C48 13.3333 42.6667 16 32 16C21.3333 16 16 13.3333 16 8V16Z" fill="black"/>
  <path d="M16 24C16 29.3333 21.3333 32 32 32C42.6667 32 48 29.3333 48 24V16C48 21.3333 42.6667 24 32 24C21.3333 24 16 21.3333 16 16V24Z" fill="black"/>
  <path d="M16 32C16 37.3333 21.3333 40 32 40C42.6667 40 48 37.3333 48 32V24C48 29.3333 42.6667 32 32 32C21.3333 32 16 29.3333 16 24V32Z" fill="black"/>
  <path d="M16 40C16 45.3333 21.3333 48 32 48C42.6667 48 48 45.3333 48 40V32C48 37.3333 42.6667 40 32 40C21.3333 40 16 37.3333 16 32V40Z" fill="black"/>
  <path d="M16 48C16 53.3333 21.3333 56 32 56C42.6667 56 48 53.3333 48 48V40C48 45.3333 42.6667 48 32 48C21.3333 48 16 45.3333 16 40V48Z" fill="black"/>
  <path d="M48 56C48 61.3333 42.6667 64 32 64C21.3333 64 16 61.3333 16 56V48C16 53.3333 21.3333 56 32 56C42.6667 56 48 53.3333 48 48V56Z" fill="black"/>
  <path d="M56 48L64 56" stroke="black" stroke-width="4"/>
  <circle cx="48" cy="40" r="8" stroke="black" stroke-width="4"/>
</svg>
